<svg xmlns="http://www.w3.org/2000/svg" xmlns:xlink="http://www.w3.org/1999/xlink" width="500" zoomAndPan="magnify" viewBox="0 0 375 374.999991" height="500" preserveAspectRatio="xMidYMid meet" version="1.0"><defs><g/></defs><rect x="-37.5" width="450" fill="#ffffff" y="-37.499999" height="449.999989" fill-opacity="1"/><rect x="-37.5" width="450" fill="#ffffff" y="-37.499999" height="449.999989" fill-opacity="1"/><rect x="-37.5" width="450" fill="#ff9655" y="-37.499999" height="449.999989" fill-opacity="1"/><g fill="#fbfaf9" fill-opacity="1"><g transform="translate(103.258563, 169.571953)"><g><path d="M 5.65625 0.28125 C 5.15625 0.28125 4.765625 0.078125 4.484375 -0.328125 C 4.203125 -0.734375 4.0625 -1.222656 4.0625 -1.796875 C 4.125 -2.734375 4.3125 -3.296875 4.625 -3.484375 C 4.9375 -3.679688 5.535156 -3.78125 6.421875 -3.78125 C 8.242188 -3.78125 9.59375 -4.109375 10.46875 -4.765625 C 11.351562 -5.421875 11.90625 -6.234375 12.125 -7.203125 C 12.34375 -8.179688 12.484375 -9.457031 12.546875 -11.03125 L 12.546875 -48.5 C 12.484375 -50.0625 12.34375 -51.332031 12.125 -52.3125 C 11.90625 -53.289062 11.351562 -54.109375 10.46875 -54.765625 C 9.59375 -55.421875 8.242188 -55.75 6.421875 -55.75 L 5.84375 -55.75 C 5.21875 -55.75 4.78125 -55.859375 4.53125 -56.078125 C 4.28125 -56.304688 4.125 -56.859375 4.0625 -57.734375 C 4.0625 -58.304688 4.203125 -58.796875 4.484375 -59.203125 C 4.765625 -59.609375 5.15625 -59.8125 5.65625 -59.8125 C 9.8125 -59.625 13.554688 -59.53125 16.890625 -59.53125 L 46.515625 -59.53125 C 48.148438 -59.53125 48.96875 -58.773438 48.96875 -57.265625 L 49.25 -44.0625 C 49.25 -43.488281 48.960938 -43.03125 48.390625 -42.6875 C 47.828125 -42.34375 47.265625 -42.171875 46.703125 -42.171875 C 45.941406 -42.171875 45.28125 -42.3125 44.71875 -42.59375 C 44.15625 -42.875 43.84375 -43.300781 43.78125 -43.875 C 43.269531 -46.957031 42.71875 -49.296875 42.125 -50.890625 C 41.53125 -52.492188 40.648438 -53.6875 39.484375 -54.46875 C 38.316406 -55.257812 36.664062 -55.6875 34.53125 -55.75 L 21.890625 -55.75 L 21.890625 -31.796875 L 38.96875 -31.796875 C 39.40625 -31.734375 39.75 -31.492188 40 -31.078125 C 40.25 -30.671875 40.375 -30.1875 40.375 -29.625 C 40.375 -29.125 40.25 -28.679688 40 -28.296875 C 39.75 -27.921875 39.40625 -27.734375 38.96875 -27.734375 L 21.890625 -27.734375 L 21.890625 -9.90625 C 22.015625 -8.582031 22.171875 -7.523438 22.359375 -6.734375 C 22.546875 -5.953125 23.109375 -5.242188 24.046875 -4.609375 C 24.992188 -3.984375 26.472656 -3.707031 28.484375 -3.78125 L 37.171875 -3.78125 C 39.367188 -3.84375 41.035156 -4.203125 42.171875 -4.859375 C 43.304688 -5.515625 44.203125 -6.535156 44.859375 -7.921875 C 45.515625 -9.304688 46.316406 -11.570312 47.265625 -14.71875 C 47.703125 -15.851562 48.769531 -16.289062 50.46875 -16.03125 C 51.101562 -15.90625 51.65625 -15.65625 52.125 -15.28125 C 52.59375 -14.90625 52.796875 -14.4375 52.734375 -13.875 L 50.84375 -1.984375 C 50.65625 -1.160156 50.375 -0.625 50 -0.375 C 49.625 -0.125 48.992188 0 48.109375 0 L 16.984375 0 C 13.585938 0 9.8125 0.09375 5.65625 0.28125 Z M 5.65625 0.28125 "/></g></g></g><g fill="#fbfaf9" fill-opacity="1"><g transform="translate(156.465603, 169.571953)"><g><path d="M 0.5625 0.28125 C 0 0.28125 -0.421875 0.078125 -0.703125 -0.328125 C -0.984375 -0.734375 -1.125 -1.222656 -1.125 -1.796875 C -1.0625 -2.734375 -0.875 -3.296875 -0.5625 -3.484375 C -0.25 -3.679688 0.125 -3.78125 0.5625 -3.78125 C 1 -3.78125 1.285156 -3.78125 1.421875 -3.78125 C 3.304688 -3.78125 4.6875 -4.265625 5.5625 -5.234375 C 6.445312 -6.210938 7.15625 -7.3125 7.6875 -8.53125 C 8.21875 -9.757812 8.582031 -10.59375 8.78125 -11.03125 L 25.28125 -50.09375 C 25.65625 -51.039062 25.84375 -51.796875 25.84375 -52.359375 C 25.84375 -53.492188 25.398438 -54.3125 24.515625 -54.8125 C 23.640625 -55.3125 22.414062 -55.722656 20.84375 -56.046875 C 19.78125 -56.234375 19.117188 -56.421875 18.859375 -56.609375 C 18.609375 -56.796875 18.484375 -57.328125 18.484375 -58.203125 C 18.484375 -58.960938 18.6875 -59.46875 19.09375 -59.71875 C 19.507812 -59.96875 20.15625 -60.09375 21.03125 -60.09375 C 24.175781 -60.09375 26.675781 -59.859375 28.53125 -59.390625 C 30.394531 -58.921875 32.015625 -57.976562 33.390625 -56.5625 C 34.773438 -55.144531 36.066406 -52.988281 37.265625 -50.09375 L 53.109375 -11.03125 C 54.054688 -8.644531 54.96875 -6.851562 55.84375 -5.65625 C 56.726562 -4.46875 58.050781 -3.84375 59.8125 -3.78125 L 60.375 -3.78125 C 61.007812 -3.78125 61.453125 -3.664062 61.703125 -3.4375 C 61.953125 -3.21875 62.109375 -2.671875 62.171875 -1.796875 C 62.171875 -1.222656 62.03125 -0.734375 61.75 -0.328125 C 61.46875 0.078125 61.039062 0.28125 60.46875 0.28125 C 56.445312 0.09375 52.988281 0 50.09375 0 C 46.320312 0 42.421875 0.09375 38.390625 0.28125 C 37.828125 0.28125 37.40625 0.078125 37.125 -0.328125 C 36.84375 -0.734375 36.703125 -1.222656 36.703125 -1.796875 C 36.765625 -2.671875 36.921875 -3.21875 37.171875 -3.4375 C 37.421875 -3.664062 37.863281 -3.78125 38.5 -3.78125 C 40.632812 -3.78125 42.140625 -3.984375 43.015625 -4.390625 C 43.898438 -4.796875 44.34375 -5.535156 44.34375 -6.609375 C 44.34375 -7.421875 43.960938 -8.894531 43.203125 -11.03125 L 40 -18.875 L 16.703125 -18.875 C 15.128906 -14.96875 14.234375 -12.695312 14.015625 -12.0625 C 13.796875 -11.4375 13.6875 -11.09375 13.6875 -11.03125 C 12.925781 -8.644531 12.546875 -7.109375 12.546875 -6.421875 C 12.546875 -5.347656 13.015625 -4.640625 13.953125 -4.296875 C 14.898438 -3.953125 16.695312 -3.78125 19.34375 -3.78125 L 19.90625 -3.78125 C 20.53125 -3.78125 20.96875 -3.664062 21.21875 -3.4375 C 21.476562 -3.21875 21.640625 -2.671875 21.703125 -1.796875 C 21.703125 -1.222656 21.554688 -0.734375 21.265625 -0.328125 C 20.984375 0.078125 20.5625 0.28125 20 0.28125 C 15.976562 0.09375 12.550781 0 9.71875 0 C 7.707031 0 4.65625 0.09375 0.5625 0.28125 Z M 18.484375 -22.921875 L 38.296875 -22.921875 L 28.78125 -47.171875 L 28.484375 -47.171875 Z M 18.484375 -22.921875 "/></g></g></g><g fill="#fbfaf9" fill-opacity="1"><g transform="translate(215.238631, 169.571953)"><g><path d="M 16.890625 0.28125 C 16.316406 0.28125 15.890625 0.078125 15.609375 -0.328125 C 15.328125 -0.734375 15.1875 -1.222656 15.1875 -1.796875 C 15.25 -2.734375 15.4375 -3.296875 15.75 -3.484375 C 16.070312 -3.679688 16.671875 -3.78125 17.546875 -3.78125 C 19.367188 -3.78125 20.71875 -4.109375 21.59375 -4.765625 C 22.476562 -5.421875 23.03125 -6.234375 23.25 -7.203125 C 23.46875 -8.179688 23.613281 -9.457031 23.6875 -11.03125 L 23.6875 -56.046875 L 17.171875 -56.046875 C 15.035156 -55.984375 13.382812 -55.523438 12.21875 -54.671875 C 11.050781 -53.828125 10.164062 -52.566406 9.5625 -50.890625 C 8.96875 -49.222656 8.453125 -46.851562 8.015625 -43.78125 C 7.953125 -43.269531 7.570312 -42.859375 6.875 -42.546875 C 6.1875 -42.234375 5.46875 -42.078125 4.71875 -42.078125 C 4.15625 -42.078125 3.632812 -42.25 3.15625 -42.59375 C 2.6875 -42.9375 2.453125 -43.394531 2.453125 -43.96875 L 2.734375 -57.265625 C 2.734375 -58.773438 3.582031 -59.53125 5.28125 -59.53125 L 51.421875 -59.53125 C 53.054688 -59.53125 53.875 -58.773438 53.875 -57.265625 L 54.25 -43.96875 C 54.25 -43.394531 53.992188 -42.9375 53.484375 -42.59375 C 52.984375 -42.25 52.453125 -42.078125 51.890625 -42.078125 C 51.128906 -42.078125 50.421875 -42.234375 49.765625 -42.546875 C 49.109375 -42.859375 48.75 -43.269531 48.6875 -43.78125 C 48.175781 -46.925781 47.640625 -49.316406 47.078125 -50.953125 C 46.515625 -52.585938 45.632812 -53.828125 44.4375 -54.671875 C 43.238281 -55.523438 41.570312 -55.984375 39.4375 -56.046875 L 33.015625 -56.046875 L 33.015625 -11.03125 C 33.078125 -9.457031 33.21875 -8.179688 33.4375 -7.203125 C 33.664062 -6.234375 34.21875 -5.421875 35.09375 -4.765625 C 35.976562 -4.109375 37.332031 -3.78125 39.15625 -3.78125 L 39.71875 -3.78125 C 40.28125 -3.78125 40.703125 -3.664062 40.984375 -3.4375 C 41.273438 -3.21875 41.453125 -2.671875 41.515625 -1.796875 C 41.515625 -1.222656 41.367188 -0.734375 41.078125 -0.328125 C 40.796875 0.078125 40.375 0.28125 39.8125 0.28125 C 35.789062 0.09375 32.082031 0 28.6875 0 C 24.90625 0 20.972656 0.09375 16.890625 0.28125 Z M 16.890625 0.28125 "/></g></g></g><g fill="#fbfaf9" fill-opacity="1"><g transform="translate(269.00304, 169.571953)"><g/></g></g><g fill="#fbfaf9" fill-opacity="1"><g transform="translate(105.125885, 276.901501)"><g><path d="M 5.65625 0.28125 C 5.09375 0.28125 4.671875 0.078125 4.390625 -0.328125 C 4.109375 -0.734375 3.96875 -1.222656 3.96875 -1.796875 C 4.03125 -2.734375 4.21875 -3.296875 4.53125 -3.484375 C 4.84375 -3.679688 5.441406 -3.78125 6.328125 -3.78125 C 8.148438 -3.78125 9.5 -4.109375 10.375 -4.765625 C 11.257812 -5.421875 11.8125 -6.234375 12.03125 -7.203125 C 12.25 -8.179688 12.390625 -9.457031 12.453125 -11.03125 L 12.453125 -48.5 C 12.390625 -50.0625 12.25 -51.332031 12.03125 -52.3125 C 11.8125 -53.289062 11.257812 -54.109375 10.375 -54.765625 C 9.5 -55.421875 8.148438 -55.75 6.328125 -55.75 L 5.75 -55.75 C 5.125 -55.75 4.6875 -55.859375 4.4375 -56.078125 C 4.1875 -56.304688 4.03125 -56.859375 3.96875 -57.734375 C 3.96875 -58.304688 4.109375 -58.796875 4.390625 -59.203125 C 4.671875 -59.609375 5.09375 -59.8125 5.65625 -59.8125 C 9.75 -59.625 13.460938 -59.53125 16.796875 -59.53125 L 30.09375 -59.53125 C 33.550781 -59.53125 36.347656 -59.273438 38.484375 -58.765625 C 40.628906 -58.265625 42.550781 -57.484375 44.25 -56.421875 C 45.882812 -55.347656 47.171875 -53.882812 48.109375 -52.03125 C 49.054688 -50.175781 49.53125 -48.148438 49.53125 -45.953125 C 49.53125 -42.046875 48.253906 -38.941406 45.703125 -36.640625 C 43.160156 -34.347656 40.191406 -32.796875 36.796875 -31.984375 L 36.796875 -31.703125 C 40.066406 -31.703125 43.035156 -31.054688 45.703125 -29.765625 C 48.378906 -28.472656 50.457031 -26.742188 51.9375 -24.578125 C 53.414062 -22.410156 54.15625 -20.066406 54.15625 -17.546875 C 54.15625 -13.265625 52.847656 -9.800781 50.234375 -7.15625 C 47.628906 -4.519531 44.359375 -2.648438 40.421875 -1.546875 C 36.492188 -0.453125 32.421875 0.09375 28.203125 0.09375 L 16.890625 0 C 13.492188 0 9.75 0.09375 5.65625 0.28125 Z M 25.75 -33.59375 C 28.269531 -33.59375 30.457031 -33.78125 32.3125 -34.15625 C 34.164062 -34.53125 35.816406 -35.535156 37.265625 -37.171875 C 38.710938 -38.804688 39.4375 -41.351562 39.4375 -44.8125 C 39.4375 -52.300781 35.753906 -56.046875 28.390625 -56.046875 L 21.796875 -56.046875 L 21.796875 -33.59375 Z M 28.59375 -3.671875 C 33.238281 -3.742188 36.960938 -4.894531 39.765625 -7.125 C 42.566406 -9.351562 43.96875 -13.015625 43.96875 -18.109375 C 43.65625 -21.503906 42.066406 -24.300781 39.203125 -26.5 C 36.335938 -28.707031 31.820312 -29.8125 25.65625 -29.8125 L 21.796875 -29.8125 L 21.796875 -11.03125 C 21.796875 -8.894531 22 -7.304688 22.40625 -6.265625 C 22.8125 -5.234375 23.46875 -4.539062 24.375 -4.1875 C 25.289062 -3.84375 26.695312 -3.671875 28.59375 -3.671875 Z M 28.59375 -3.671875 "/></g></g></g><g fill="#fbfaf9" fill-opacity="1"><g transform="translate(160.880075, 276.901501)"><g><path d="M 0.5625 0.28125 C 0 0.28125 -0.421875 0.078125 -0.703125 -0.328125 C -0.984375 -0.734375 -1.125 -1.222656 -1.125 -1.796875 C -1.0625 -2.734375 -0.875 -3.296875 -0.5625 -3.484375 C -0.25 -3.679688 0.125 -3.78125 0.5625 -3.78125 C 1 -3.78125 1.285156 -3.78125 1.421875 -3.78125 C 3.304688 -3.78125 4.6875 -4.265625 5.5625 -5.234375 C 6.445312 -6.210938 7.15625 -7.3125 7.6875 -8.53125 C 8.21875 -9.757812 8.582031 -10.59375 8.78125 -11.03125 L 25.28125 -50.09375 C 25.65625 -51.039062 25.84375 -51.796875 25.84375 -52.359375 C 25.84375 -53.492188 25.398438 -54.3125 24.515625 -54.8125 C 23.640625 -55.3125 22.414062 -55.722656 20.84375 -56.046875 C 19.78125 -56.234375 19.117188 -56.421875 18.859375 -56.609375 C 18.609375 -56.796875 18.484375 -57.328125 18.484375 -58.203125 C 18.484375 -58.960938 18.6875 -59.46875 19.09375 -59.71875 C 19.507812 -59.96875 20.15625 -60.09375 21.03125 -60.09375 C 24.175781 -60.09375 26.675781 -59.859375 28.53125 -59.390625 C 30.394531 -58.921875 32.015625 -57.976562 33.390625 -56.5625 C 34.773438 -55.144531 36.066406 -52.988281 37.265625 -50.09375 L 53.109375 -11.03125 C 54.054688 -8.644531 54.96875 -6.851562 55.84375 -5.65625 C 56.726562 -4.46875 58.050781 -3.84375 59.8125 -3.78125 L 60.375 -3.78125 C 61.007812 -3.78125 61.453125 -3.664062 61.703125 -3.4375 C 61.953125 -3.21875 62.109375 -2.671875 62.171875 -1.796875 C 62.171875 -1.222656 62.03125 -0.734375 61.75 -0.328125 C 61.46875 0.078125 61.039062 0.28125 60.46875 0.28125 C 56.445312 0.09375 52.988281 0 50.09375 0 C 46.320312 0 42.421875 0.09375 38.390625 0.28125 C 37.828125 0.28125 37.40625 0.078125 37.125 -0.328125 C 36.84375 -0.734375 36.703125 -1.222656 36.703125 -1.796875 C 36.765625 -2.671875 36.921875 -3.21875 37.171875 -3.4375 C 37.421875 -3.664062 37.863281 -3.78125 38.5 -3.78125 C 40.632812 -3.78125 42.140625 -3.984375 43.015625 -4.390625 C 43.898438 -4.796875 44.34375 -5.535156 44.34375 -6.609375 C 44.34375 -7.421875 43.960938 -8.894531 43.203125 -11.03125 L 40 -18.875 L 16.703125 -18.875 C 15.128906 -14.96875 14.234375 -12.695312 14.015625 -12.0625 C 13.796875 -11.4375 13.6875 -11.09375 13.6875 -11.03125 C 12.925781 -8.644531 12.546875 -7.109375 12.546875 -6.421875 C 12.546875 -5.347656 13.015625 -4.640625 13.953125 -4.296875 C 14.898438 -3.953125 16.695312 -3.78125 19.34375 -3.78125 L 19.90625 -3.78125 C 20.53125 -3.78125 20.96875 -3.664062 21.21875 -3.4375 C 21.476562 -3.21875 21.640625 -2.671875 21.703125 -1.796875 C 21.703125 -1.222656 21.554688 -0.734375 21.265625 -0.328125 C 20.984375 0.078125 20.5625 0.28125 20 0.28125 C 15.976562 0.09375 12.550781 0 9.71875 0 C 7.707031 0 4.65625 0.09375 0.5625 0.28125 Z M 18.484375 -22.921875 L 38.296875 -22.921875 L 28.78125 -47.171875 L 28.484375 -47.171875 Z M 18.484375 -22.921875 "/></g></g></g><g fill="#fbfaf9" fill-opacity="1"><g transform="translate(219.653104, 276.901501)"><g><path d="M 17.921875 0.28125 C 17.359375 0.28125 16.9375 0.078125 16.65625 -0.328125 C 16.375 -0.734375 16.234375 -1.222656 16.234375 -1.796875 C 16.296875 -2.734375 16.5 -3.296875 16.84375 -3.484375 C 17.1875 -3.679688 17.765625 -3.78125 18.578125 -3.78125 C 20.410156 -3.78125 21.765625 -4.109375 22.640625 -4.765625 C 23.523438 -5.421875 24.078125 -6.234375 24.296875 -7.203125 C 24.515625 -8.179688 24.65625 -9.457031 24.71875 -11.03125 L 24.71875 -22.828125 C 24.71875 -23.835938 23.160156 -27.5 20.046875 -33.8125 C 16.929688 -40.132812 14.398438 -45.0625 12.453125 -48.59375 C 11.191406 -50.851562 9.804688 -52.53125 8.296875 -53.625 C 6.785156 -54.726562 4.929688 -55.503906 2.734375 -55.953125 C 2.484375 -56.015625 2.101562 -56.09375 1.59375 -56.1875 C 1.09375 -56.28125 0.765625 -56.46875 0.609375 -56.75 C 0.453125 -57.03125 0.375 -57.484375 0.375 -58.109375 C 0.375 -58.867188 0.578125 -59.375 0.984375 -59.625 C 1.398438 -59.875 2.046875 -60 2.921875 -60 C 7.953125 -60 11.882812 -59.320312 14.71875 -57.96875 C 17.550781 -56.625 20.066406 -54.03125 22.265625 -50.1875 C 23.335938 -48.113281 24.816406 -45.128906 26.703125 -41.234375 C 29.460938 -35.691406 31.285156 -32.101562 32.171875 -30.46875 L 32.453125 -30.46875 L 42.921875 -51.140625 C 43.492188 -52.390625 43.78125 -53.300781 43.78125 -53.875 C 43.78125 -54.625 43.382812 -55.125 42.59375 -55.375 C 41.8125 -55.625 40.539062 -55.75 38.78125 -55.75 L 38.203125 -55.75 C 37.578125 -55.75 37.140625 -55.859375 36.890625 -56.078125 C 36.640625 -56.304688 36.484375 -56.859375 36.421875 -57.734375 C 36.421875 -58.304688 36.5625 -58.796875 36.84375 -59.203125 C 37.125 -59.609375 37.515625 -59.8125 38.015625 -59.8125 C 42.109375 -59.625 45.535156 -59.53125 48.296875 -59.53125 C 50.628906 -59.53125 53.804688 -59.625 57.828125 -59.8125 C 58.398438 -59.8125 58.828125 -59.609375 59.109375 -59.203125 C 59.390625 -58.796875 59.53125 -58.304688 59.53125 -57.734375 C 59.46875 -56.859375 59.3125 -56.304688 59.0625 -56.078125 C 58.8125 -55.859375 58.367188 -55.75 57.734375 -55.75 C 55.160156 -55.75 53.085938 -55.257812 51.515625 -54.28125 C 49.941406 -53.3125 48.523438 -51.664062 47.265625 -49.34375 L 36.609375 -29.25 C 36.421875 -28.875 36.039062 -28.101562 35.46875 -26.9375 C 34.90625 -25.769531 34.53125 -24.695312 34.34375 -23.71875 C 34.15625 -22.75 34.0625 -21.570312 34.0625 -20.1875 L 34.0625 -11.03125 C 34.125 -9.457031 34.265625 -8.179688 34.484375 -7.203125 C 34.703125 -6.234375 35.25 -5.421875 36.125 -4.765625 C 37.007812 -4.109375 38.363281 -3.78125 40.1875 -3.78125 L 40.75 -3.78125 C 41.382812 -3.78125 41.828125 -3.664062 42.078125 -3.4375 C 42.328125 -3.21875 42.484375 -2.671875 42.546875 -1.796875 C 42.546875 -1.222656 42.40625 -0.734375 42.125 -0.328125 C 41.84375 0.078125 41.445312 0.28125 40.9375 0.28125 C 36.914062 0.09375 33.144531 0 29.625 0 C 25.914062 0 22.015625 0.09375 17.921875 0.28125 Z M 17.921875 0.28125 "/></g></g></g><g fill="#fbfaf9" fill-opacity="1"><g transform="translate(101.462682, 196.432634)"><g><path d="M 4.53125 0.046875 C 4.425781 0.046875 4.351562 0.015625 4.3125 -0.046875 L 1.921875 -5.4375 L 1.890625 -5.4375 L 1.921875 -1.234375 C 1.921875 -1.046875 1.929688 -0.898438 1.953125 -0.796875 C 1.972656 -0.691406 2.03125 -0.601562 2.125 -0.53125 C 2.226562 -0.457031 2.378906 -0.421875 2.578125 -0.421875 L 2.640625 -0.421875 C 2.710938 -0.421875 2.765625 -0.40625 2.796875 -0.375 C 2.828125 -0.351562 2.847656 -0.296875 2.859375 -0.203125 C 2.859375 -0.140625 2.84375 -0.0820312 2.8125 -0.03125 C 2.78125 0.0078125 2.734375 0.03125 2.671875 0.03125 L 2.40625 0.015625 C 2.082031 0.00390625 1.847656 0 1.703125 0 C 1.460938 0 1.113281 0.0078125 0.65625 0.03125 C 0.59375 0.03125 0.546875 0.0078125 0.515625 -0.03125 C 0.484375 -0.0820312 0.46875 -0.140625 0.46875 -0.203125 C 0.46875 -0.304688 0.484375 -0.367188 0.515625 -0.390625 C 0.554688 -0.410156 0.628906 -0.421875 0.734375 -0.421875 C 0.929688 -0.421875 1.078125 -0.457031 1.171875 -0.53125 C 1.273438 -0.601562 1.335938 -0.691406 1.359375 -0.796875 C 1.378906 -0.898438 1.390625 -1.046875 1.390625 -1.234375 L 1.421875 -5.4375 C 1.421875 -5.65625 1.394531 -5.816406 1.34375 -5.921875 C 1.289062 -6.035156 1.21875 -6.113281 1.125 -6.15625 C 1.03125 -6.207031 0.890625 -6.25 0.703125 -6.28125 C 0.679688 -6.289062 0.640625 -6.300781 0.578125 -6.3125 C 0.523438 -6.320312 0.488281 -6.34375 0.46875 -6.375 C 0.445312 -6.40625 0.4375 -6.457031 0.4375 -6.53125 C 0.4375 -6.613281 0.457031 -6.664062 0.5 -6.6875 C 0.550781 -6.71875 0.628906 -6.734375 0.734375 -6.734375 C 1.148438 -6.734375 1.488281 -6.707031 1.75 -6.65625 C 2.019531 -6.601562 2.253906 -6.492188 2.453125 -6.328125 C 2.660156 -6.171875 2.832031 -5.929688 2.96875 -5.609375 L 4.78125 -1.53125 L 4.8125 -1.53125 L 6.890625 -6.671875 L 7.5 -6.671875 C 7.882812 -6.671875 8.304688 -6.679688 8.765625 -6.703125 C 8.828125 -6.703125 8.875 -6.675781 8.90625 -6.625 C 8.9375 -6.582031 8.953125 -6.53125 8.953125 -6.46875 C 8.941406 -6.363281 8.914062 -6.300781 8.875 -6.28125 C 8.84375 -6.257812 8.78125 -6.25 8.6875 -6.25 C 8.476562 -6.25 8.320312 -6.210938 8.21875 -6.140625 C 8.125 -6.066406 8.0625 -5.972656 8.03125 -5.859375 C 8.007812 -5.753906 8 -5.613281 8 -5.4375 L 8 -1.234375 C 8 -1.054688 8.007812 -0.910156 8.03125 -0.796875 C 8.0625 -0.691406 8.125 -0.601562 8.21875 -0.53125 C 8.320312 -0.457031 8.476562 -0.421875 8.6875 -0.421875 L 8.75 -0.421875 C 8.8125 -0.421875 8.859375 -0.40625 8.890625 -0.375 C 8.921875 -0.351562 8.941406 -0.296875 8.953125 -0.203125 C 8.953125 -0.140625 8.9375 -0.0820312 8.90625 -0.03125 C 8.875 0.0078125 8.828125 0.03125 8.765625 0.03125 C 8.304688 0.0078125 7.878906 0 7.484375 0 C 7.078125 0 6.644531 0.0078125 6.1875 0.03125 C 6.125 0.03125 6.078125 0.0078125 6.046875 -0.03125 C 6.015625 -0.0820312 6 -0.140625 6 -0.203125 C 6.007812 -0.304688 6.03125 -0.367188 6.0625 -0.390625 C 6.09375 -0.410156 6.160156 -0.421875 6.265625 -0.421875 C 6.460938 -0.421875 6.609375 -0.457031 6.703125 -0.53125 C 6.804688 -0.601562 6.867188 -0.691406 6.890625 -0.796875 C 6.921875 -0.910156 6.941406 -1.054688 6.953125 -1.234375 L 6.953125 -5.4375 L 6.921875 -5.4375 L 4.734375 -0.046875 C 4.710938 0.015625 4.644531 0.046875 4.53125 0.046875 Z M 4.53125 0.046875 "/></g></g></g><g fill="#fbfaf9" fill-opacity="1"><g transform="translate(119.338563, 196.432634)"><g><path d="M 0.640625 0.03125 C 0.578125 0.03125 0.53125 0.0078125 0.5 -0.03125 C 0.46875 -0.0820312 0.453125 -0.140625 0.453125 -0.203125 C 0.460938 -0.304688 0.484375 -0.367188 0.515625 -0.390625 C 0.554688 -0.410156 0.625 -0.421875 0.71875 -0.421875 C 0.925781 -0.421875 1.078125 -0.457031 1.171875 -0.53125 C 1.273438 -0.601562 1.335938 -0.691406 1.359375 -0.796875 C 1.378906 -0.910156 1.394531 -1.054688 1.40625 -1.234375 L 1.40625 -5.4375 C 1.394531 -5.613281 1.378906 -5.753906 1.359375 -5.859375 C 1.335938 -5.972656 1.273438 -6.066406 1.171875 -6.140625 C 1.078125 -6.210938 0.925781 -6.25 0.71875 -6.25 L 0.65625 -6.25 C 0.582031 -6.25 0.53125 -6.257812 0.5 -6.28125 C 0.476562 -6.3125 0.460938 -6.375 0.453125 -6.46875 C 0.453125 -6.53125 0.46875 -6.582031 0.5 -6.625 C 0.53125 -6.675781 0.578125 -6.703125 0.640625 -6.703125 C 1.097656 -6.679688 1.515625 -6.671875 1.890625 -6.671875 L 5.21875 -6.671875 C 5.394531 -6.671875 5.484375 -6.585938 5.484375 -6.421875 L 5.515625 -4.9375 C 5.515625 -4.875 5.484375 -4.820312 5.421875 -4.78125 C 5.359375 -4.75 5.296875 -4.734375 5.234375 -4.734375 C 5.148438 -4.734375 5.078125 -4.75 5.015625 -4.78125 C 4.953125 -4.8125 4.914062 -4.859375 4.90625 -4.921875 C 4.851562 -5.265625 4.789062 -5.523438 4.71875 -5.703125 C 4.65625 -5.890625 4.554688 -6.023438 4.421875 -6.109375 C 4.296875 -6.191406 4.113281 -6.238281 3.875 -6.25 L 2.453125 -6.25 L 2.453125 -3.5625 L 4.375 -3.5625 C 4.414062 -3.550781 4.453125 -3.523438 4.484375 -3.484375 C 4.515625 -3.441406 4.53125 -3.390625 4.53125 -3.328125 C 4.53125 -3.265625 4.515625 -3.210938 4.484375 -3.171875 C 4.453125 -3.128906 4.414062 -3.109375 4.375 -3.109375 L 2.453125 -3.109375 L 2.453125 -1.109375 C 2.460938 -0.960938 2.476562 -0.84375 2.5 -0.75 C 2.519531 -0.664062 2.582031 -0.585938 2.6875 -0.515625 C 2.800781 -0.441406 2.96875 -0.410156 3.1875 -0.421875 L 4.171875 -0.421875 C 4.410156 -0.429688 4.59375 -0.472656 4.71875 -0.546875 C 4.851562 -0.617188 4.957031 -0.734375 5.03125 -0.890625 C 5.101562 -1.046875 5.191406 -1.300781 5.296875 -1.65625 C 5.347656 -1.78125 5.46875 -1.828125 5.65625 -1.796875 C 5.726562 -1.785156 5.789062 -1.757812 5.84375 -1.71875 C 5.894531 -1.675781 5.914062 -1.625 5.90625 -1.5625 L 5.703125 -0.21875 C 5.679688 -0.125 5.648438 -0.0625 5.609375 -0.03125 C 5.566406 -0.0078125 5.492188 0 5.390625 0 L 1.90625 0 C 1.519531 0 1.097656 0.0078125 0.640625 0.03125 Z M 0.640625 0.03125 "/></g></g></g><g fill="#fbfaf9" fill-opacity="1"><g transform="translate(134.092747, 196.432634)"><g><path d="M 0.0625 0.03125 C 0 0.03125 -0.046875 0.0078125 -0.078125 -0.03125 C -0.109375 -0.0820312 -0.125 -0.140625 -0.125 -0.203125 C -0.113281 -0.304688 -0.09375 -0.367188 -0.0625 -0.390625 C -0.03125 -0.410156 0.0078125 -0.421875 0.0625 -0.421875 C 0.113281 -0.421875 0.144531 -0.421875 0.15625 -0.421875 C 0.363281 -0.421875 0.515625 -0.472656 0.609375 -0.578125 C 0.710938 -0.691406 0.796875 -0.816406 0.859375 -0.953125 C 0.921875 -1.085938 0.960938 -1.179688 0.984375 -1.234375 L 2.828125 -5.609375 C 2.867188 -5.722656 2.890625 -5.8125 2.890625 -5.875 C 2.890625 -6 2.84375 -6.085938 2.75 -6.140625 C 2.65625 -6.203125 2.519531 -6.25 2.34375 -6.28125 C 2.21875 -6.300781 2.140625 -6.320312 2.109375 -6.34375 C 2.085938 -6.363281 2.078125 -6.425781 2.078125 -6.53125 C 2.078125 -6.613281 2.097656 -6.664062 2.140625 -6.6875 C 2.179688 -6.71875 2.253906 -6.734375 2.359375 -6.734375 C 2.710938 -6.734375 2.992188 -6.707031 3.203125 -6.65625 C 3.410156 -6.601562 3.59375 -6.5 3.75 -6.34375 C 3.90625 -6.1875 4.046875 -5.941406 4.171875 -5.609375 L 5.953125 -1.234375 C 6.054688 -0.960938 6.15625 -0.757812 6.25 -0.625 C 6.351562 -0.5 6.503906 -0.429688 6.703125 -0.421875 L 6.765625 -0.421875 C 6.835938 -0.421875 6.882812 -0.40625 6.90625 -0.375 C 6.9375 -0.351562 6.957031 -0.296875 6.96875 -0.203125 C 6.96875 -0.140625 6.953125 -0.0820312 6.921875 -0.03125 C 6.890625 0.0078125 6.84375 0.03125 6.78125 0.03125 C 6.332031 0.0078125 5.941406 0 5.609375 0 C 5.191406 0 4.757812 0.0078125 4.3125 0.03125 C 4.238281 0.03125 4.1875 0.0078125 4.15625 -0.03125 C 4.125 -0.0820312 4.109375 -0.140625 4.109375 -0.203125 C 4.117188 -0.296875 4.132812 -0.351562 4.15625 -0.375 C 4.1875 -0.40625 4.238281 -0.421875 4.3125 -0.421875 C 4.550781 -0.421875 4.71875 -0.441406 4.8125 -0.484375 C 4.914062 -0.535156 4.96875 -0.617188 4.96875 -0.734375 C 4.96875 -0.828125 4.925781 -0.992188 4.84375 -1.234375 L 4.484375 -2.109375 L 1.875 -2.109375 C 1.695312 -1.671875 1.59375 -1.414062 1.5625 -1.34375 C 1.539062 -1.28125 1.53125 -1.242188 1.53125 -1.234375 C 1.445312 -0.960938 1.40625 -0.789062 1.40625 -0.71875 C 1.40625 -0.601562 1.457031 -0.523438 1.5625 -0.484375 C 1.664062 -0.441406 1.867188 -0.421875 2.171875 -0.421875 L 2.234375 -0.421875 C 2.304688 -0.421875 2.351562 -0.40625 2.375 -0.375 C 2.40625 -0.351562 2.425781 -0.296875 2.4375 -0.203125 C 2.4375 -0.140625 2.421875 -0.0820312 2.390625 -0.03125 C 2.359375 0.0078125 2.3125 0.03125 2.25 0.03125 C 1.789062 0.0078125 1.40625 0 1.09375 0 C 0.863281 0 0.519531 0.0078125 0.0625 0.03125 Z M 2.078125 -2.578125 L 4.296875 -2.578125 L 3.21875 -5.296875 L 3.1875 -5.296875 Z M 2.078125 -2.578125 "/></g></g></g><g fill="#fbfaf9" fill-opacity="1"><g transform="translate(149.471274, 196.432634)"><g><path d="M 0.640625 0.03125 C 0.578125 0.03125 0.53125 0.0078125 0.5 -0.03125 C 0.46875 -0.0820312 0.453125 -0.140625 0.453125 -0.203125 C 0.460938 -0.304688 0.484375 -0.367188 0.515625 -0.390625 C 0.554688 -0.410156 0.625 -0.421875 0.71875 -0.421875 C 0.925781 -0.421875 1.078125 -0.457031 1.171875 -0.53125 C 1.273438 -0.601562 1.335938 -0.691406 1.359375 -0.796875 C 1.378906 -0.910156 1.394531 -1.054688 1.40625 -1.234375 L 1.40625 -5.4375 C 1.394531 -5.613281 1.378906 -5.753906 1.359375 -5.859375 C 1.335938 -5.972656 1.273438 -6.066406 1.171875 -6.140625 C 1.078125 -6.210938 0.925781 -6.25 0.71875 -6.25 L 0.65625 -6.25 C 0.582031 -6.25 0.53125 -6.257812 0.5 -6.28125 C 0.476562 -6.3125 0.460938 -6.375 0.453125 -6.46875 C 0.453125 -6.53125 0.46875 -6.582031 0.5 -6.625 C 0.53125 -6.675781 0.578125 -6.703125 0.640625 -6.703125 C 1.097656 -6.679688 1.515625 -6.671875 1.890625 -6.671875 C 2.316406 -6.671875 2.757812 -6.679688 3.21875 -6.703125 C 3.28125 -6.703125 3.328125 -6.675781 3.359375 -6.625 C 3.390625 -6.582031 3.40625 -6.53125 3.40625 -6.46875 C 3.394531 -6.363281 3.367188 -6.300781 3.328125 -6.28125 C 3.296875 -6.257812 3.234375 -6.25 3.140625 -6.25 C 2.929688 -6.25 2.773438 -6.210938 2.671875 -6.140625 C 2.578125 -6.066406 2.519531 -5.972656 2.5 -5.859375 C 2.476562 -5.753906 2.460938 -5.613281 2.453125 -5.4375 L 2.453125 -1.078125 C 2.460938 -0.929688 2.476562 -0.816406 2.5 -0.734375 C 2.519531 -0.648438 2.582031 -0.570312 2.6875 -0.5 C 2.800781 -0.4375 2.96875 -0.410156 3.1875 -0.421875 L 4.140625 -0.421875 C 4.390625 -0.429688 4.578125 -0.472656 4.703125 -0.546875 C 4.828125 -0.617188 4.925781 -0.734375 5 -0.890625 C 5.082031 -1.046875 5.175781 -1.300781 5.28125 -1.65625 C 5.332031 -1.78125 5.453125 -1.828125 5.640625 -1.796875 C 5.703125 -1.785156 5.757812 -1.757812 5.8125 -1.71875 C 5.875 -1.675781 5.898438 -1.625 5.890625 -1.5625 L 5.6875 -0.21875 C 5.664062 -0.125 5.628906 -0.0625 5.578125 -0.03125 C 5.535156 -0.0078125 5.46875 0 5.375 0 L 1.90625 0 C 1.519531 0 1.097656 0.0078125 0.640625 0.03125 Z M 0.640625 0.03125 "/></g></g></g><g fill="#fbfaf9" fill-opacity="1"><g transform="translate(163.982078, 196.432634)"><g/></g></g><g fill="#fbfaf9" fill-opacity="1"><g transform="translate(174.810334, 196.432634)"><g><path d="M 1.890625 0.03125 C 1.828125 0.03125 1.78125 0.0078125 1.75 -0.03125 C 1.71875 -0.0820312 1.703125 -0.140625 1.703125 -0.203125 C 1.710938 -0.304688 1.734375 -0.367188 1.765625 -0.390625 C 1.796875 -0.410156 1.863281 -0.421875 1.96875 -0.421875 C 2.175781 -0.421875 2.328125 -0.457031 2.421875 -0.53125 C 2.523438 -0.601562 2.585938 -0.691406 2.609375 -0.796875 C 2.628906 -0.910156 2.644531 -1.054688 2.65625 -1.234375 L 2.65625 -6.28125 L 1.921875 -6.28125 C 1.679688 -6.269531 1.492188 -6.21875 1.359375 -6.125 C 1.234375 -6.03125 1.132812 -5.890625 1.0625 -5.703125 C 1 -5.515625 0.945312 -5.25 0.90625 -4.90625 C 0.894531 -4.851562 0.847656 -4.804688 0.765625 -4.765625 C 0.691406 -4.734375 0.613281 -4.71875 0.53125 -4.71875 C 0.46875 -4.71875 0.410156 -4.734375 0.359375 -4.765625 C 0.304688 -4.804688 0.28125 -4.859375 0.28125 -4.921875 L 0.3125 -6.421875 C 0.3125 -6.585938 0.40625 -6.671875 0.59375 -6.671875 L 5.765625 -6.671875 C 5.953125 -6.671875 6.046875 -6.585938 6.046875 -6.421875 L 6.078125 -4.921875 C 6.078125 -4.859375 6.046875 -4.804688 5.984375 -4.765625 C 5.929688 -4.734375 5.875 -4.71875 5.8125 -4.71875 C 5.726562 -4.71875 5.648438 -4.734375 5.578125 -4.765625 C 5.503906 -4.804688 5.460938 -4.851562 5.453125 -4.90625 C 5.398438 -5.257812 5.34375 -5.523438 5.28125 -5.703125 C 5.21875 -5.890625 5.117188 -6.03125 4.984375 -6.125 C 4.847656 -6.21875 4.660156 -6.269531 4.421875 -6.28125 L 3.703125 -6.28125 L 3.703125 -1.234375 C 3.710938 -1.054688 3.726562 -0.910156 3.75 -0.796875 C 3.769531 -0.691406 3.828125 -0.601562 3.921875 -0.53125 C 4.023438 -0.457031 4.179688 -0.421875 4.390625 -0.421875 L 4.453125 -0.421875 C 4.515625 -0.421875 4.5625 -0.40625 4.59375 -0.375 C 4.625 -0.351562 4.644531 -0.296875 4.65625 -0.203125 C 4.65625 -0.140625 4.640625 -0.0820312 4.609375 -0.03125 C 4.578125 0.0078125 4.53125 0.03125 4.46875 0.03125 C 4.007812 0.0078125 3.59375 0 3.21875 0 C 2.789062 0 2.347656 0.0078125 1.890625 0.03125 Z M 1.890625 0.03125 "/></g></g></g><g fill="#fbfaf9" fill-opacity="1"><g transform="translate(189.628012, 196.432634)"><g><path d="M 0.640625 0.03125 C 0.578125 0.03125 0.53125 0.0078125 0.5 -0.03125 C 0.46875 -0.0820312 0.453125 -0.140625 0.453125 -0.203125 C 0.460938 -0.304688 0.484375 -0.367188 0.515625 -0.390625 C 0.554688 -0.410156 0.625 -0.421875 0.71875 -0.421875 C 0.925781 -0.421875 1.078125 -0.457031 1.171875 -0.53125 C 1.273438 -0.601562 1.335938 -0.691406 1.359375 -0.796875 C 1.378906 -0.910156 1.394531 -1.054688 1.40625 -1.234375 L 1.40625 -5.421875 C 1.394531 -5.609375 1.378906 -5.753906 1.359375 -5.859375 C 1.335938 -5.960938 1.273438 -6.050781 1.171875 -6.125 C 1.078125 -6.207031 0.925781 -6.25 0.71875 -6.25 L 0.65625 -6.25 C 0.582031 -6.25 0.53125 -6.257812 0.5 -6.28125 C 0.476562 -6.3125 0.460938 -6.375 0.453125 -6.46875 C 0.453125 -6.53125 0.46875 -6.582031 0.5 -6.625 C 0.53125 -6.675781 0.578125 -6.703125 0.640625 -6.703125 C 1.097656 -6.679688 1.519531 -6.671875 1.90625 -6.671875 L 3.71875 -6.671875 C 4.257812 -6.671875 4.710938 -6.585938 5.078125 -6.421875 C 5.441406 -6.253906 5.707031 -6.039062 5.875 -5.78125 C 6.050781 -5.519531 6.140625 -5.242188 6.140625 -4.953125 C 6.140625 -4.566406 5.984375 -4.207031 5.671875 -3.875 C 5.367188 -3.550781 4.953125 -3.320312 4.421875 -3.1875 L 4.59375 -2.890625 C 4.894531 -2.410156 5.164062 -2 5.40625 -1.65625 C 5.644531 -1.320312 5.90625 -1.003906 6.1875 -0.703125 C 6.382812 -0.546875 6.597656 -0.453125 6.828125 -0.421875 C 6.835938 -0.421875 6.863281 -0.414062 6.90625 -0.40625 C 6.957031 -0.40625 7 -0.390625 7.03125 -0.359375 C 7.070312 -0.328125 7.09375 -0.273438 7.09375 -0.203125 C 7.09375 -0.140625 7.070312 -0.0820312 7.03125 -0.03125 C 7 0.0078125 6.953125 0.03125 6.890625 0.03125 L 6.625 0.015625 C 6.3125 0.00390625 6.082031 0 5.9375 0 C 5.65625 -0.0507812 5.414062 -0.148438 5.21875 -0.296875 C 5.019531 -0.441406 4.820312 -0.648438 4.625 -0.921875 C 4.414062 -1.191406 4.128906 -1.628906 3.765625 -2.234375 L 3.578125 -2.53125 C 3.472656 -2.695312 3.367188 -2.8125 3.265625 -2.875 C 3.171875 -2.9375 3.003906 -2.96875 2.765625 -2.96875 L 2.453125 -2.96875 L 2.453125 -1.234375 C 2.460938 -1.054688 2.476562 -0.910156 2.5 -0.796875 C 2.519531 -0.691406 2.578125 -0.601562 2.671875 -0.53125 C 2.773438 -0.457031 2.929688 -0.421875 3.140625 -0.421875 L 3.203125 -0.421875 C 3.265625 -0.421875 3.3125 -0.40625 3.34375 -0.375 C 3.375 -0.351562 3.394531 -0.296875 3.40625 -0.203125 C 3.40625 -0.140625 3.390625 -0.0820312 3.359375 -0.03125 C 3.328125 0.0078125 3.28125 0.03125 3.21875 0.03125 C 2.757812 0.0078125 2.316406 0 1.890625 0 C 1.515625 0 1.097656 0.0078125 0.640625 0.03125 Z M 3.390625 -3.375 C 4.441406 -3.375 4.96875 -3.867188 4.96875 -4.859375 C 4.96875 -5.253906 4.828125 -5.585938 4.546875 -5.859375 C 4.273438 -6.140625 3.820312 -6.28125 3.1875 -6.28125 C 2.988281 -6.28125 2.835938 -6.253906 2.734375 -6.203125 C 2.628906 -6.160156 2.554688 -6.078125 2.515625 -5.953125 C 2.472656 -5.835938 2.453125 -5.65625 2.453125 -5.40625 L 2.453125 -3.375 Z M 3.390625 -3.375 "/></g></g></g><g fill="#fbfaf9" fill-opacity="1"><g transform="translate(205.197017, 196.432634)"><g><path d="M 0.0625 0.03125 C 0 0.03125 -0.046875 0.0078125 -0.078125 -0.03125 C -0.109375 -0.0820312 -0.125 -0.140625 -0.125 -0.203125 C -0.113281 -0.304688 -0.09375 -0.367188 -0.0625 -0.390625 C -0.03125 -0.410156 0.0078125 -0.421875 0.0625 -0.421875 C 0.113281 -0.421875 0.144531 -0.421875 0.15625 -0.421875 C 0.363281 -0.421875 0.515625 -0.472656 0.609375 -0.578125 C 0.710938 -0.691406 0.796875 -0.816406 0.859375 -0.953125 C 0.921875 -1.085938 0.960938 -1.179688 0.984375 -1.234375 L 2.828125 -5.609375 C 2.867188 -5.722656 2.890625 -5.8125 2.890625 -5.875 C 2.890625 -6 2.84375 -6.085938 2.75 -6.140625 C 2.65625 -6.203125 2.519531 -6.25 2.34375 -6.28125 C 2.21875 -6.300781 2.140625 -6.320312 2.109375 -6.34375 C 2.085938 -6.363281 2.078125 -6.425781 2.078125 -6.53125 C 2.078125 -6.613281 2.097656 -6.664062 2.140625 -6.6875 C 2.179688 -6.71875 2.253906 -6.734375 2.359375 -6.734375 C 2.710938 -6.734375 2.992188 -6.707031 3.203125 -6.65625 C 3.410156 -6.601562 3.59375 -6.5 3.75 -6.34375 C 3.90625 -6.1875 4.046875 -5.941406 4.171875 -5.609375 L 5.953125 -1.234375 C 6.054688 -0.960938 6.15625 -0.757812 6.25 -0.625 C 6.351562 -0.5 6.503906 -0.429688 6.703125 -0.421875 L 6.765625 -0.421875 C 6.835938 -0.421875 6.882812 -0.40625 6.90625 -0.375 C 6.9375 -0.351562 6.957031 -0.296875 6.96875 -0.203125 C 6.96875 -0.140625 6.953125 -0.0820312 6.921875 -0.03125 C 6.890625 0.0078125 6.84375 0.03125 6.78125 0.03125 C 6.332031 0.0078125 5.941406 0 5.609375 0 C 5.191406 0 4.757812 0.0078125 4.3125 0.03125 C 4.238281 0.03125 4.1875 0.0078125 4.15625 -0.03125 C 4.125 -0.0820312 4.109375 -0.140625 4.109375 -0.203125 C 4.117188 -0.296875 4.132812 -0.351562 4.15625 -0.375 C 4.1875 -0.40625 4.238281 -0.421875 4.3125 -0.421875 C 4.550781 -0.421875 4.71875 -0.441406 4.8125 -0.484375 C 4.914062 -0.535156 4.96875 -0.617188 4.96875 -0.734375 C 4.96875 -0.828125 4.925781 -0.992188 4.84375 -1.234375 L 4.484375 -2.109375 L 1.875 -2.109375 C 1.695312 -1.671875 1.59375 -1.414062 1.5625 -1.34375 C 1.539062 -1.28125 1.53125 -1.242188 1.53125 -1.234375 C 1.445312 -0.960938 1.40625 -0.789062 1.40625 -0.71875 C 1.40625 -0.601562 1.457031 -0.523438 1.5625 -0.484375 C 1.664062 -0.441406 1.867188 -0.421875 2.171875 -0.421875 L 2.234375 -0.421875 C 2.304688 -0.421875 2.351562 -0.40625 2.375 -0.375 C 2.40625 -0.351562 2.425781 -0.296875 2.4375 -0.203125 C 2.4375 -0.140625 2.421875 -0.0820312 2.390625 -0.03125 C 2.359375 0.0078125 2.3125 0.03125 2.25 0.03125 C 1.789062 0.0078125 1.40625 0 1.09375 0 C 0.863281 0 0.519531 0.0078125 0.0625 0.03125 Z M 2.078125 -2.578125 L 4.296875 -2.578125 L 3.21875 -5.296875 L 3.1875 -5.296875 Z M 2.078125 -2.578125 "/></g></g></g><g fill="#fbfaf9" fill-opacity="1"><g transform="translate(220.575541, 196.432634)"><g><path d="M 3.78125 0.21875 C 3.1875 0.21875 2.640625 0.078125 2.140625 -0.203125 C 1.640625 -0.492188 1.242188 -0.90625 0.953125 -1.4375 C 0.660156 -1.96875 0.515625 -2.585938 0.515625 -3.296875 C 0.515625 -4.003906 0.65625 -4.628906 0.9375 -5.171875 C 1.21875 -5.710938 1.617188 -6.132812 2.140625 -6.4375 C 2.671875 -6.738281 3.285156 -6.890625 3.984375 -6.890625 C 4.585938 -6.890625 5.125 -6.765625 5.59375 -6.515625 C 6.0625 -6.273438 6.296875 -5.898438 6.296875 -5.390625 C 6.304688 -5.078125 6.210938 -4.804688 6.015625 -4.578125 C 5.816406 -4.359375 5.550781 -4.25 5.21875 -4.25 C 5.09375 -4.25 4.984375 -4.269531 4.890625 -4.3125 C 4.804688 -4.363281 4.742188 -4.421875 4.703125 -4.484375 C 4.660156 -4.546875 4.644531 -4.597656 4.65625 -4.640625 C 4.65625 -4.648438 4.703125 -4.6875 4.796875 -4.75 C 4.898438 -4.8125 4.988281 -4.898438 5.0625 -5.015625 C 5.144531 -5.128906 5.1875 -5.265625 5.1875 -5.421875 C 5.1875 -5.742188 5.078125 -6 4.859375 -6.1875 C 4.640625 -6.375 4.34375 -6.46875 3.96875 -6.46875 C 3.539062 -6.46875 3.15625 -6.34375 2.8125 -6.09375 C 2.476562 -5.851562 2.21875 -5.5 2.03125 -5.03125 C 1.84375 -4.5625 1.75 -4.003906 1.75 -3.359375 C 1.75 -2.785156 1.847656 -2.269531 2.046875 -1.8125 C 2.253906 -1.351562 2.539062 -0.988281 2.90625 -0.71875 C 3.269531 -0.445312 3.691406 -0.3125 4.171875 -0.3125 C 4.546875 -0.3125 4.867188 -0.390625 5.140625 -0.546875 C 5.410156 -0.703125 5.65625 -0.957031 5.875 -1.3125 C 5.914062 -1.375 5.96875 -1.40625 6.03125 -1.40625 C 6.082031 -1.40625 6.144531 -1.382812 6.21875 -1.34375 C 6.332031 -1.269531 6.390625 -1.191406 6.390625 -1.109375 C 6.390625 -1.066406 6.375 -1.03125 6.34375 -1 C 6.070312 -0.664062 5.816406 -0.410156 5.578125 -0.234375 C 5.347656 -0.0664062 5.09375 0.046875 4.8125 0.109375 C 4.539062 0.179688 4.195312 0.21875 3.78125 0.21875 Z M 3.78125 0.21875 "/></g></g></g><g fill="#fbfaf9" fill-opacity="1"><g transform="translate(235.805909, 196.432634)"><g><path d="M 0.640625 0.03125 C 0.578125 0.03125 0.53125 0.0078125 0.5 -0.03125 C 0.46875 -0.0820312 0.453125 -0.140625 0.453125 -0.203125 C 0.460938 -0.304688 0.484375 -0.367188 0.515625 -0.390625 C 0.554688 -0.410156 0.625 -0.421875 0.71875 -0.421875 C 0.925781 -0.421875 1.078125 -0.457031 1.171875 -0.53125 C 1.273438 -0.601562 1.335938 -0.691406 1.359375 -0.796875 C 1.378906 -0.910156 1.394531 -1.054688 1.40625 -1.234375 L 1.40625 -5.4375 C 1.394531 -5.613281 1.378906 -5.753906 1.359375 -5.859375 C 1.335938 -5.972656 1.273438 -6.066406 1.171875 -6.140625 C 1.078125 -6.210938 0.925781 -6.25 0.71875 -6.25 L 0.65625 -6.25 C 0.582031 -6.25 0.53125 -6.257812 0.5 -6.28125 C 0.476562 -6.3125 0.460938 -6.375 0.453125 -6.46875 C 0.453125 -6.53125 0.46875 -6.582031 0.5 -6.625 C 0.53125 -6.675781 0.578125 -6.703125 0.640625 -6.703125 C 1.097656 -6.679688 1.515625 -6.671875 1.890625 -6.671875 C 2.316406 -6.671875 2.757812 -6.679688 3.21875 -6.703125 C 3.28125 -6.703125 3.328125 -6.675781 3.359375 -6.625 C 3.390625 -6.582031 3.40625 -6.53125 3.40625 -6.46875 C 3.394531 -6.363281 3.375 -6.300781 3.34375 -6.28125 C 3.3125 -6.257812 3.242188 -6.25 3.140625 -6.25 C 2.929688 -6.25 2.773438 -6.210938 2.671875 -6.140625 C 2.578125 -6.066406 2.519531 -5.972656 2.5 -5.859375 C 2.476562 -5.753906 2.460938 -5.613281 2.453125 -5.4375 L 2.453125 -3.515625 C 2.566406 -3.535156 2.691406 -3.59375 2.828125 -3.6875 C 2.972656 -3.789062 3.148438 -3.929688 3.359375 -4.109375 C 3.753906 -4.484375 4.25 -5.023438 4.84375 -5.734375 C 4.96875 -5.867188 5.03125 -5.984375 5.03125 -6.078125 C 5.03125 -6.179688 4.9375 -6.234375 4.75 -6.234375 C 4.695312 -6.242188 4.660156 -6.265625 4.640625 -6.296875 C 4.628906 -6.328125 4.613281 -6.382812 4.59375 -6.46875 C 4.59375 -6.53125 4.609375 -6.582031 4.640625 -6.625 C 4.679688 -6.675781 4.734375 -6.703125 4.796875 -6.703125 C 5.035156 -6.679688 5.421875 -6.671875 5.953125 -6.671875 C 6.117188 -6.671875 6.367188 -6.679688 6.703125 -6.703125 L 6.921875 -6.703125 C 6.984375 -6.703125 7.03125 -6.675781 7.0625 -6.625 C 7.101562 -6.582031 7.125 -6.53125 7.125 -6.46875 C 7.113281 -6.363281 7.085938 -6.296875 7.046875 -6.265625 C 7.015625 -6.242188 6.96875 -6.234375 6.90625 -6.234375 C 6.625 -6.253906 6.359375 -6.207031 6.109375 -6.09375 C 5.859375 -5.988281 5.597656 -5.800781 5.328125 -5.53125 L 3.609375 -3.75 C 3.859375 -3.445312 4.113281 -3.15625 4.375 -2.875 C 4.632812 -2.601562 4.945312 -2.285156 5.3125 -1.921875 C 5.488281 -1.734375 5.707031 -1.503906 5.96875 -1.234375 C 6.039062 -1.160156 6.09375 -1.101562 6.125 -1.0625 C 6.351562 -0.84375 6.53125 -0.6875 6.65625 -0.59375 C 6.789062 -0.5 6.953125 -0.441406 7.140625 -0.421875 C 7.148438 -0.421875 7.179688 -0.414062 7.234375 -0.40625 C 7.285156 -0.40625 7.328125 -0.390625 7.359375 -0.359375 C 7.390625 -0.328125 7.40625 -0.273438 7.40625 -0.203125 C 7.40625 -0.140625 7.390625 -0.0820312 7.359375 -0.03125 C 7.328125 0.0078125 7.28125 0.03125 7.21875 0.03125 C 7.132812 0.0195312 7.03125 0.015625 6.90625 0.015625 C 6.65625 0.00390625 6.457031 0 6.3125 0 L 5.640625 0 C 4.703125 -1.039062 3.867188 -1.984375 3.140625 -2.828125 C 2.910156 -3.085938 2.679688 -3.226562 2.453125 -3.25 L 2.453125 -1.234375 C 2.460938 -1.054688 2.476562 -0.910156 2.5 -0.796875 C 2.519531 -0.691406 2.578125 -0.601562 2.671875 -0.53125 C 2.773438 -0.457031 2.929688 -0.421875 3.140625 -0.421875 L 3.203125 -0.421875 C 3.273438 -0.421875 3.320312 -0.40625 3.34375 -0.375 C 3.375 -0.351562 3.394531 -0.296875 3.40625 -0.203125 C 3.40625 -0.140625 3.390625 -0.0820312 3.359375 -0.03125 C 3.328125 0.0078125 3.28125 0.03125 3.21875 0.03125 C 2.757812 0.0078125 2.320312 0 1.90625 0 C 1.519531 0 1.097656 0.0078125 0.640625 0.03125 Z M 0.640625 0.03125 "/></g></g></g><g fill="#fbfaf9" fill-opacity="1"><g transform="translate(251.681781, 196.432634)"><g><path d="M 0.640625 0.03125 C 0.578125 0.03125 0.53125 0.0078125 0.5 -0.03125 C 0.46875 -0.0820312 0.453125 -0.140625 0.453125 -0.203125 C 0.460938 -0.304688 0.484375 -0.367188 0.515625 -0.390625 C 0.554688 -0.410156 0.625 -0.421875 0.71875 -0.421875 C 0.925781 -0.421875 1.078125 -0.457031 1.171875 -0.53125 C 1.273438 -0.601562 1.335938 -0.691406 1.359375 -0.796875 C 1.378906 -0.910156 1.394531 -1.054688 1.40625 -1.234375 L 1.40625 -5.4375 C 1.394531 -5.613281 1.378906 -5.753906 1.359375 -5.859375 C 1.335938 -5.972656 1.273438 -6.066406 1.171875 -6.140625 C 1.078125 -6.210938 0.925781 -6.25 0.71875 -6.25 L 0.65625 -6.25 C 0.582031 -6.25 0.53125 -6.257812 0.5 -6.28125 C 0.476562 -6.3125 0.460938 -6.375 0.453125 -6.46875 C 0.453125 -6.53125 0.46875 -6.582031 0.5 -6.625 C 0.53125 -6.675781 0.578125 -6.703125 0.640625 -6.703125 C 1.097656 -6.679688 1.515625 -6.671875 1.890625 -6.671875 L 5.21875 -6.671875 C 5.394531 -6.671875 5.484375 -6.585938 5.484375 -6.421875 L 5.515625 -4.9375 C 5.515625 -4.875 5.484375 -4.820312 5.421875 -4.78125 C 5.359375 -4.75 5.296875 -4.734375 5.234375 -4.734375 C 5.148438 -4.734375 5.078125 -4.75 5.015625 -4.78125 C 4.953125 -4.8125 4.914062 -4.859375 4.90625 -4.921875 C 4.851562 -5.265625 4.789062 -5.523438 4.71875 -5.703125 C 4.65625 -5.890625 4.554688 -6.023438 4.421875 -6.109375 C 4.296875 -6.191406 4.113281 -6.238281 3.875 -6.25 L 2.453125 -6.25 L 2.453125 -3.5625 L 4.375 -3.5625 C 4.414062 -3.550781 4.453125 -3.523438 4.484375 -3.484375 C 4.515625 -3.441406 4.53125 -3.390625 4.53125 -3.328125 C 4.53125 -3.265625 4.515625 -3.210938 4.484375 -3.171875 C 4.453125 -3.128906 4.414062 -3.109375 4.375 -3.109375 L 2.453125 -3.109375 L 2.453125 -1.109375 C 2.460938 -0.960938 2.476562 -0.84375 2.5 -0.75 C 2.519531 -0.664062 2.582031 -0.585938 2.6875 -0.515625 C 2.800781 -0.441406 2.96875 -0.410156 3.1875 -0.421875 L 4.171875 -0.421875 C 4.410156 -0.429688 4.59375 -0.472656 4.71875 -0.546875 C 4.851562 -0.617188 4.957031 -0.734375 5.03125 -0.890625 C 5.101562 -1.046875 5.191406 -1.300781 5.296875 -1.65625 C 5.347656 -1.78125 5.46875 -1.828125 5.65625 -1.796875 C 5.726562 -1.785156 5.789062 -1.757812 5.84375 -1.71875 C 5.894531 -1.675781 5.914062 -1.625 5.90625 -1.5625 L 5.703125 -0.21875 C 5.679688 -0.125 5.648438 -0.0625 5.609375 -0.03125 C 5.566406 -0.0078125 5.492188 0 5.390625 0 L 1.90625 0 C 1.519531 0 1.097656 0.0078125 0.640625 0.03125 Z M 0.640625 0.03125 "/></g></g></g><g fill="#fbfaf9" fill-opacity="1"><g transform="translate(266.435961, 196.432634)"><g><path d="M 0.640625 0.03125 C 0.578125 0.03125 0.53125 0.0078125 0.5 -0.03125 C 0.46875 -0.0820312 0.453125 -0.140625 0.453125 -0.203125 C 0.460938 -0.304688 0.484375 -0.367188 0.515625 -0.390625 C 0.554688 -0.410156 0.625 -0.421875 0.71875 -0.421875 C 0.925781 -0.421875 1.078125 -0.457031 1.171875 -0.53125 C 1.273438 -0.601562 1.335938 -0.691406 1.359375 -0.796875 C 1.378906 -0.910156 1.394531 -1.054688 1.40625 -1.234375 L 1.40625 -5.421875 C 1.394531 -5.609375 1.378906 -5.753906 1.359375 -5.859375 C 1.335938 -5.960938 1.273438 -6.050781 1.171875 -6.125 C 1.078125 -6.207031 0.925781 -6.25 0.71875 -6.25 L 0.65625 -6.25 C 0.582031 -6.25 0.53125 -6.257812 0.5 -6.28125 C 0.476562 -6.3125 0.460938 -6.375 0.453125 -6.46875 C 0.453125 -6.53125 0.46875 -6.582031 0.5 -6.625 C 0.53125 -6.675781 0.578125 -6.703125 0.640625 -6.703125 C 1.097656 -6.679688 1.519531 -6.671875 1.90625 -6.671875 L 3.71875 -6.671875 C 4.257812 -6.671875 4.710938 -6.585938 5.078125 -6.421875 C 5.441406 -6.253906 5.707031 -6.039062 5.875 -5.78125 C 6.050781 -5.519531 6.140625 -5.242188 6.140625 -4.953125 C 6.140625 -4.566406 5.984375 -4.207031 5.671875 -3.875 C 5.367188 -3.550781 4.953125 -3.320312 4.421875 -3.1875 L 4.59375 -2.890625 C 4.894531 -2.410156 5.164062 -2 5.40625 -1.65625 C 5.644531 -1.320312 5.90625 -1.003906 6.1875 -0.703125 C 6.382812 -0.546875 6.597656 -0.453125 6.828125 -0.421875 C 6.835938 -0.421875 6.863281 -0.414062 6.90625 -0.40625 C 6.957031 -0.40625 7 -0.390625 7.03125 -0.359375 C 7.070312 -0.328125 7.09375 -0.273438 7.09375 -0.203125 C 7.09375 -0.140625 7.070312 -0.0820312 7.03125 -0.03125 C 7 0.0078125 6.953125 0.03125 6.890625 0.03125 L 6.625 0.015625 C 6.3125 0.00390625 6.082031 0 5.9375 0 C 5.65625 -0.0507812 5.414062 -0.148438 5.21875 -0.296875 C 5.019531 -0.441406 4.820312 -0.648438 4.625 -0.921875 C 4.414062 -1.191406 4.128906 -1.628906 3.765625 -2.234375 L 3.578125 -2.53125 C 3.472656 -2.695312 3.367188 -2.8125 3.265625 -2.875 C 3.171875 -2.9375 3.003906 -2.96875 2.765625 -2.96875 L 2.453125 -2.96875 L 2.453125 -1.234375 C 2.460938 -1.054688 2.476562 -0.910156 2.5 -0.796875 C 2.519531 -0.691406 2.578125 -0.601562 2.671875 -0.53125 C 2.773438 -0.457031 2.929688 -0.421875 3.140625 -0.421875 L 3.203125 -0.421875 C 3.265625 -0.421875 3.3125 -0.40625 3.34375 -0.375 C 3.375 -0.351562 3.394531 -0.296875 3.40625 -0.203125 C 3.40625 -0.140625 3.390625 -0.0820312 3.359375 -0.03125 C 3.328125 0.0078125 3.28125 0.03125 3.21875 0.03125 C 2.757812 0.0078125 2.316406 0 1.890625 0 C 1.515625 0 1.097656 0.0078125 0.640625 0.03125 Z M 3.390625 -3.375 C 4.441406 -3.375 4.96875 -3.867188 4.96875 -4.859375 C 4.96875 -5.253906 4.828125 -5.585938 4.546875 -5.859375 C 4.273438 -6.140625 3.820312 -6.28125 3.1875 -6.28125 C 2.988281 -6.28125 2.835938 -6.253906 2.734375 -6.203125 C 2.628906 -6.160156 2.554688 -6.078125 2.515625 -5.953125 C 2.472656 -5.835938 2.453125 -5.65625 2.453125 -5.40625 L 2.453125 -3.375 Z M 3.390625 -3.375 "/></g></g></g></svg>