<svg xmlns="http://www.w3.org/2000/svg" xmlns:xlink="http://www.w3.org/1999/xlink" width="500" zoomAndPan="magnify" viewBox="0 0 375 374.999991" height="500" preserveAspectRatio="xMidYMid meet" version="1.0"><path fill="#ffffff" d="M 243.683594 146.128906 C 230.1875 120.117188 228.988281 97.335938 240.6875 95.625 C 243.464844 95.21875 246.546875 95.953125 250.105469 97.765625 C 243.035156 92.222656 235.976562 89.3125 230.847656 90.058594 C 217.625 92.003906 219.433594 117.558594 234.703125 146.972656 C 249.972656 176.382812 273.265625 198.5625 286.492188 196.617188 C 291.066406 195.945312 293.5625 192.261719 294.628906 186.769531 C 293.355469 188.433594 291.679688 189.449219 289.488281 189.765625 C 277.792969 191.480469 257.191406 172.113281 243.695312 146.113281 Z M 341.765625 100.640625 C 353.71875 85.078125 347.640625 69.148438 336.492188 61.085938 C 333.203125 58.359375 329.472656 56.582031 325.738281 56.230469 C 316.660156 54.285156 306.949219 57.328125 301.011719 68.167969 C 294.003906 80.980469 288.65625 90.070312 283.015625 97.375 C 258.328125 65.160156 229.246094 48.03125 212.191406 57.894531 C 211.628906 58.222656 211.078125 58.578125 210.550781 58.957031 C 210.527344 58.933594 210.503906 58.894531 210.480469 58.859375 C 145.441406 114.21875 119.542969 118.109375 85.910156 128.851562 C 59.824219 137.183594 55.53125 185.15625 74.003906 228.625 C 59.652344 230.472656 42.964844 231.828125 23.046875 232.84375 C -14.460938 234.765625 3.546875 287.472656 46.023438 272.691406 C 8.34375 295.519531 48.972656 339.0625 66.617188 308.390625 C 75.863281 292.316406 86.300781 278.5625 97.738281 266.574219 C 127.003906 300.367188 169.003906 319.109375 183.722656 298.46875 C 206.746094 266.183594 253.214844 246.277344 307.15625 227.949219 C 307.070312 227.742188 306.960938 227.511719 306.847656 227.265625 C 307.65625 226.933594 308.441406 226.554688 309.199219 226.117188 C 325.324219 216.792969 325.960938 186.109375 312.867188 151.082031 C 321.640625 149.382812 331.476562 148.609375 345.742188 148.328125 C 385.175781 147.546875 380.316406 91.707031 341.765625 100.652344 Z M 300.167969 214.222656 C 299.863281 214.46875 299.546875 214.714844 299.214844 214.933594 C 299.152344 214.96875 299.105469 215.019531 299.042969 215.054688 C 298.714844 215.289062 298.371094 215.507812 298.015625 215.714844 C 280.449219 225.871094 247.832031 202.222656 225.148438 162.898438 C 202.464844 123.578125 198.316406 83.460938 215.886719 73.320312 C 216.144531 73.171875 216.402344 73.027344 216.667969 72.890625 C 216.878906 72.78125 217.085938 72.695312 217.292969 72.597656 C 217.34375 72.574219 217.390625 72.550781 217.441406 72.523438 C 217.699219 72.414062 217.953125 72.304688 218.222656 72.207031 C 218.492188 72.109375 218.761719 72.011719 219.03125 71.914062 C 233.554688 67.09375 255.882812 81.027344 275.1875 105.875 C 273.925781 107.125 272.65625 108.371094 271.382812 109.609375 C 265.960938 114.207031 259.589844 118.441406 251.230469 123.261719 C 243.167969 136.828125 261.09375 164.257812 274.808594 164.257812 C 285.84375 159.609375 293.953125 156.269531 301.734375 153.871094 C 311.585938 181.179688 311.460938 205.109375 300.167969 214.234375 Z M 300.167969 214.222656 " fill-opacity="1" fill-rule="nonzero"/></svg>